<svg viewBox="0 0 16 13" xml:space="preserve" xmlns="http://www.w3.org/2000/svg" enable-background="new 0 0 16 13"><path d="M12 6h4v1h-4z" fill="#727272" class="fill-000000"></path><path d="M11 8c.827 0 1.5-.673 1.5-1.5S11.827 5 11 5c-.651 0-1.201.419-1.408 1H0v1h9.592c.207.581.757 1 1.408 1zm0-2a.5.5 0 1 1 0 1 .5.5 0 0 1 0-1zM6 10c-.651 0-1.201.419-1.408 1H0v1h4.592c.207.581.757 1 1.408 1s1.201-.419 1.408-1H16v-1H7.408c-.207-.581-.757-1-1.408-1zm0 2a.5.5 0 1 1 0-1 .5.5 0 0 1 0 1zM4.408 1C4.201.419 3.651 0 3 0S1.799.419 1.592 1H0v1h1.592c.207.581.757 1 1.408 1s1.201-.419 1.408-1H16V1H4.408zM3 2a.5.5 0 1 1 0-1 .5.5 0 0 1 0 1z" fill="#727272" class="fill-000000"></path></svg>